<svg xmlns="http://www.w3.org/2000/svg" version="1.0" viewBox="0 0 590 720">
  <defs/>
  <g fill="#fff">
    <path d="M238 708c-27-22-30-53-7-81 24-31 59-35 82-9 48 53-19 133-75 90zM407 702c-36-39-7-102 45-102 24 0 58 35 58 60 0 27-35 60-63 60-13 0-31-8-40-18zM235 578c-3-7-34-98-68-203l-64-190-49-5c-44-5-49-7-49-30 0-24 2-25 75-25h74l10 33 9 32h193c106 0 199 3 208 6 22 8 19 32-18 159l-32 110-128 3c-111 2-127 5-122 18 3 9 6 20 6 25 0 4 53 10 117 11 104 3 118 5 121 21 8 40-14 47-150 47-94 0-130-3-133-12zm35-188c0-11-7-20-15-20-15 0-21 21-8 33 12 13 23 7 23-13zm120 0c0-16-7-20-30-20s-30 4-30 20 7 20 30 20 30-4 30-20zm90-6c0-8-4-14-10-14-5 0-10 9-10 21 0 11 5 17 10 14 6-3 10-13 10-21zM270 280c0-16-7-20-35-20-38 0-38 0-29 24 4 10 18 16 35 16 22 0 29-5 29-20zm120 0c0-16-7-20-30-20s-30 4-30 20 7 20 30 20 30-4 30-20zm118-2c3-13-3-18-22-18-20 0-26 5-26 21 0 15 5 20 22 17 13-2 24-11 26-20z"/>
    <path d="M190 164c0-3 19-30 42-60 42-54 64-64 85-43 9 9 29 2 79-25 36-20 73-36 82-34 12 2 72 135 72 160 0 5-11 8-23 8-20 0-27-9-42-55-11-30-23-55-28-55-7 0-67 28-75 35-2 2 2 12 10 24 10 16 10 23 0 33-9 9-21 5-56-20l-44-32-26 35c-18 23-35 35-52 35-13 0-24-3-24-6z"/>
  </g>
</svg>
