<svg xmlns="http://www.w3.org/2000/svg" version="1.0" viewBox="0 0 780 630">
  <defs/>
  <g fill="#fff">
    <path d="M205 605a82 82 0 01-25-50c0-35 42-75 78-75 45 0 76 30 76 75 0 70-79 101-129 50zM545 605a82 82 0 01-25-50c0-35 42-75 78-75 45 0 76 30 76 75 0 70-79 101-129 50z"/>
    <path d="M87 523c-4-3-7-48-7-100v-93h70c45 0 84-6 108-17l37-17-115-7C26 278 18 276 22 242l3-27 115-7c63-4 129-12 145-19 29-12 26-13-55-21C-15 144 5 149 5 115c0-27 3-30 37-33 35-3 37-5 40-40l3-37 282-3 281-2 40 60c74 110 86 155 87 320 0 141-1 145-22 148-16 2-26-5-39-34-45-94-194-90-234 6-11 26-18 30-50 30s-39-4-50-30c-19-46-65-74-120-74s-101 28-120 74c-12 28-37 39-53 23zm583-290c0-4-12-38-26-75l-26-68h-98v150h75c41 0 75-3 75-7z"/>
  </g>
</svg>
