<svg fill="#ffffff" xmlns="http://www.w3.org/2000/svg" version="1.0" viewBox="0 0 750 610">
  <g>
    <path d="M57 604c-4-4-7-34-7-66v-58h311l-3 63-3 62-146 3c-80 1-148-1-152-4zM50 440c0-6 11-15 24-21 20-10 26-24 40-99 9-48 16-93 16-99 0-7-21-11-53-11-29 0-58-5-65-12-8-8-12-45-12-100C0 15 1 10 23 5c13-4 102-5 198-3 225 4 233 7 237 100 3 66 3 67-29 84-18 9-59 19-91 21-32 3-58 10-58 14 0 5 7 9 15 9 13 0 15 7 9 38-8 46-12 52-28 52-8 0-16 15-18 36-4 38-3 39 66 60 16 5 31 15 34 22 3 9-32 12-152 12-100 0-156-4-156-10zM360 50c0-6-60-10-160-10S40 44 40 50s60 10 160 10 160-4 160-10zM497 163c-4-3-7-33-7-65V40h45c34 0 47 5 55 20 9 17 21 20 85 20 73 0 75 1 75 25s-2 25-73 25c-61 0-77 3-92 20-18 19-74 28-88 13z"/>
  </g>
</svg>
