<svg fill="#ffffff" xmlns="http://www.w3.org/2000/svg" version="1.0" viewBox="0 0 440 650">
  <g>
    <path d="M90 631C3 600 0 593 0 419c0-82 4-149 8-149 5 0 18 10 30 23 18 19 22 35 22 89 0 69 13 93 46 86 19-3 30-21 39-60 6-31 48-49 68-29 7 7 14 49 17 94 4 64 8 82 20 82s16-21 20-110c5-102 7-110 25-110 16 0 21 8 25 45 4 40 8 45 30 45 23 0 25-4 28-55 3-52 29-100 54-100 4 0 8 69 8 153 0 170 1 166-70 202-54 28-209 31-280 6z"/>
    <path d="M77 276c-48-18-77-43-77-69C0 138 55 53 121 20c43-22 139-27 186-9 40 15 92 67 114 114 54 116-6 164-201 164-63 0-120-5-143-13zm238-35l40-8-30-9c-38-11-170-11-210 1l-30 9 35 6c49 10 147 10 195 1zm-95-114c47 0 102 5 123 11 44 12 46 5 10-39-69-82-211-77-272 10-28 39-27 41 17 29 20-6 75-11 122-11z"/>
  </g>
</svg>
