<svg xmlns="http://www.w3.org/2000/svg" version="1.0" viewBox="0 0 780 620">
  <defs/>
  <g fill="#fff">
    <path d="M79 597c-103-69-107-209-8-274 64-42 163-31 210 23 50 57 56 142 16 203-47 71-150 94-218 48zm125-88c50-39 22-119-43-119-33 0-71 39-71 72 0 24 44 68 68 68 11 0 31-9 46-21zM552 597a81 81 0 0160-137c70 0 103 86 53 135a78 78 0 01-113 2zm88-27c24-24 24-29 4-58-18-26-41-28-66-5-22 20-23 41-1 65 21 23 38 23 63-2z"/>
    <path d="M388 474c7-99-44-185-133-225-49-23-133-24-182-4l-39 15c-2 0-4-25-4-55 0-69 17-150 35-165C80 28 256 1 323 0h38l55 115c30 64 60 117 67 120 6 2 33 6 60 9 45 5 47 5 47-19 0-18 5-25 20-25 16 0 20-7 20-30 0-20 5-30 15-30 12 0 15 13 15 60v60h30c51 0 65 25 79 143 7 58 10 111 6 116-14 24-42 10-59-29-42-95-182-92-217 4-13 35-15 36-64 36h-50l3-56zm142-149c0-28-4-35-20-35s-20 7-20 35 4 35 20 35 20-7 20-35zm70 0c0-28-4-35-20-35s-20 7-20 35 4 35 20 35 20-7 20-35zm70 0c0-28-4-35-20-35s-20 7-20 35 4 35 20 35 20-7 20-35zM230 129V59l-32 3c-32 3-33 4-36 57-4 70 1 81 38 81h30v-71zm100 0V59l-32 3c-32 3-33 4-36 57-4 70 1 81 38 81h30v-71z"/>
  </g>
</svg>
